<svg id="Layer_1" data-name="Layer 1" xmlns="http://www.w3.org/2000/svg" viewBox="0 0 478.99 418.06"><defs><style>.cls-1{fill:#fff;}</style></defs><title>SezApp2_white</title><path class="cls-1" d="M584.5,877.36a31.66,31.66,0,0,0,7.64-.78,14,14,0,0,0,4.83-2.1,7.06,7.06,0,0,0,2.52-3.15,11.16,11.16,0,0,0,.71-4.06c0-3.17-1.5-5.82-4.48-7.92s-8.13-4.36-15.42-6.79q-4.77-1.69-9.53-3.85a35.39,35.39,0,0,1-8.54-5.47,26,26,0,0,1-6.17-8,25.06,25.06,0,0,1-2.38-11.41,28.26,28.26,0,0,1,2.52-12.12,26.06,26.06,0,0,1,7.15-9.18,32.68,32.68,0,0,1,11.2-5.81,50.15,50.15,0,0,1,14.86-2,60.42,60.42,0,0,1,16.94,2.09,61.38,61.38,0,0,1,11.78,4.63l-6.3,17.23a62,62,0,0,0-9.05-3.72,39.22,39.22,0,0,0-12-1.6q-7.83,0-11.27,2.17a7.3,7.3,0,0,0-3.44,6.65,7.66,7.66,0,0,0,1.27,4.48,12.18,12.18,0,0,0,3.57,3.3,32.18,32.18,0,0,0,5.32,2.67q3,1.17,6.66,2.45c5,1.87,9.43,3.7,13.17,5.53a35.07,35.07,0,0,1,9.31,6.37,22.86,22.86,0,0,1,5.53,8.55,34.18,34.18,0,0,1,1.83,11.9q0,13.61-9.52,21.1T584.5,896a79.9,79.9,0,0,1-11.62-.78,75.27,75.27,0,0,1-9.18-1.88,53.37,53.37,0,0,1-6.86-2.38,52.21,52.21,0,0,1-4.84-2.39l6.16-17.37a53,53,0,0,0,26.34,6.17Z" transform="translate(-552 -501.88)"/><path class="cls-1" d="M634.65,857.74a45,45,0,0,1,3-17.16,36.9,36.9,0,0,1,7.91-12.26,32.89,32.89,0,0,1,11.29-7.42,35.09,35.09,0,0,1,13.1-2.53q15.69,0,24.8,9.6t9.1,28.23c0,1.22-.05,2.55-.14,4s-.19,2.73-.28,3.85H656.09a13.84,13.84,0,0,0,6,10.23q5.32,3.79,14.29,3.78a60.39,60.39,0,0,0,11.28-1,42.74,42.74,0,0,0,9-2.58l2.79,17a28.29,28.29,0,0,1-4.48,1.68,64,64,0,0,1-6.23,1.47q-3.45.63-7.36,1.05a73.54,73.54,0,0,1-7.84.42,46.54,46.54,0,0,1-17.31-2.94A33.8,33.8,0,0,1,644.1,885a31.89,31.89,0,0,1-7.13-12.1A48.13,48.13,0,0,1,634.65,857.74Zm49-8a21.56,21.56,0,0,0-.91-5.18,13,13,0,0,0-2.39-4.48,12.41,12.41,0,0,0-4.06-3.23,13.4,13.4,0,0,0-6.09-1.25,14,14,0,0,0-6,1.18A12.45,12.45,0,0,0,660,840a14.07,14.07,0,0,0-2.59,4.55,28.87,28.87,0,0,0-1.33,5.25Z" transform="translate(-552 -501.88)"/><path class="cls-1" d="M775.32,834.34l-6.81,7.57q-4.29,4.76-9.2,10.5c-3.27,3.83-6.57,7.86-9.89,12.05s-6.34,8.27-9.06,12.19H776V894H715.08V881.7c2-3.36,4.32-7,7.08-10.86s5.64-7.78,8.67-11.7,6.06-7.72,9-11.42,5.75-7,8.27-10H716.76V820.34h58.56Z" transform="translate(-552 -501.88)"/><path class="cls-1" d="M857.14,894q-2.39-6.31-4.48-12.4c-1.41-4.07-2.85-8.2-4.35-12.4h-44L795.49,894H781.34q5.61-15.42,10.51-28.52t9.6-24.87q4.69-11.76,9.32-22.48t9.67-21.23H832.9q5,10.52,9.67,21.23t9.31,22.48q4.71,11.77,9.6,24.87T872,894Zm-12.75-36q-4.49-12.19-8.89-23.61t-9.18-21.93Q821.42,823,817,834.41T808.25,858Z" transform="translate(-552 -501.88)"/><path class="cls-1" d="M948.47,857.74A51.6,51.6,0,0,1,946.3,873a34.37,34.37,0,0,1-6.38,12,28.84,28.84,0,0,1-10.29,7.85,33.12,33.12,0,0,1-13.93,2.79,35.38,35.38,0,0,1-18.36-4.9v29.14h-13V823.42c3.08-.76,6.93-1.56,11.56-2.45a85.47,85.47,0,0,1,16-1.34A40.71,40.71,0,0,1,927,822.3a32.28,32.28,0,0,1,11.48,7.56,33.55,33.55,0,0,1,7.37,12A46.12,46.12,0,0,1,948.47,857.74Zm-13.59,0q0-12.75-6.3-19.62t-16.82-6.86a76.8,76.8,0,0,0-9.17.42,37,37,0,0,0-5.25,1v46a26.59,26.59,0,0,0,6.86,3.79,25.72,25.72,0,0,0,9.81,1.82,20.9,20.9,0,0,0,9.6-2,17.77,17.77,0,0,0,6.51-5.61,23.82,23.82,0,0,0,3.65-8.4A46.69,46.69,0,0,0,934.88,857.74Z" transform="translate(-552 -501.88)"/><path class="cls-1" d="M1031,857.74a51.27,51.27,0,0,1-2.18,15.27,34.52,34.52,0,0,1-6.37,12,29,29,0,0,1-10.3,7.85,33.12,33.12,0,0,1-13.93,2.79,35.38,35.38,0,0,1-18.36-4.9v29.14h-13V823.42c3.08-.76,6.93-1.56,11.56-2.45a85.55,85.55,0,0,1,16-1.34,40.71,40.71,0,0,1,15.13,2.67,32.28,32.28,0,0,1,11.48,7.56,33.41,33.41,0,0,1,7.37,12A46.11,46.11,0,0,1,1031,857.74Zm-13.59,0q0-12.75-6.31-19.62c-4.21-4.57-9.8-6.86-16.82-6.86a76.62,76.62,0,0,0-9.16.42,37.16,37.16,0,0,0-5.26,1v46a26.67,26.67,0,0,0,6.87,3.79,25.67,25.67,0,0,0,9.8,1.82,20.9,20.9,0,0,0,9.6-2,17.61,17.61,0,0,0,6.51-5.61,23.64,23.64,0,0,0,3.65-8.4A46.68,46.68,0,0,0,1017.41,857.74Z" transform="translate(-552 -501.88)"/><path class="cls-1" d="M964.25,573.32c-.6,17.47-4.91,31.15-15.1,42C935,630.49,920,644.77,905.56,659.65c-3.83,4-6.29,4.11-10.28.07Q857,620.93,818.15,582.63c-4-4-2.62-6.08.43-9.08,15.34-15.16,29.75-31.39,46.13-45.3,19-16.14,41.27-18.54,64.1-8C952.3,531.18,962.83,550.72,964.25,573.32Z" transform="translate(-552 -501.88)"/><path class="cls-1" d="M724.41,520.33c-12.2-12.15-27-18.72-49.87-18.44-20.22,1.12-39.6,12.58-49.91,36.06-11.21,25.52-6.16,49.25,13.29,69q16.73,17,33.58,33.93a6.1,6.1,0,0,0,4.32,1.79h23.92l20.35-50.75c.9-2.25,3.86-3.73,7.31-3.66s6.32,1.73,7,4l22.63,70.55,16.9-43c.83-2.08,3.47-3.57,6.63-3.72s6.07,1,7.31,2.94l14.81,23.59h37.79a2.64,2.64,0,0,0,1.88-4.51c-20.7-20.64-42.9-42.84-58.27-58.21Q754.3,550.14,724.41,520.33Z" transform="translate(-552 -501.88)"/><path class="cls-1" d="M877.74,673.38c-5.08-5-10.92-10.84-17.19-17.09a12.1,12.1,0,0,0-8.5-3.51h-54.2c-3,0-5.64-1.08-6.8-2.94l-8.35-13.3-19.23,49c-.86,2.21-3.8,3.85-7.12,3.85h-.19c-3.4,0-6.32-1.78-7-4.05l-22.7-70.75-13.9,34.66c-.89,2.18-3.81,3.57-7.13,3.57H688.71a2.22,2.22,0,0,0-1.59,3.79c14.18,14.17,64,63.93,82.36,82.06s38.56,17.93,57.15-.18c17.32-16.89,34-34.41,51.47-51.09C884,681.71,883.06,678.65,877.74,673.38Z" transform="translate(-552 -501.88)"/></svg>