<svg id="Layer_1" data-name="Layer 1" xmlns="http://www.w3.org/2000/svg" viewBox="0 0 345.49 250.28"><defs><style>.cls-1{fill:#54bff9;}.cls-2{fill:#7558dd;}</style></defs><title>SezApp2_icon</title><path class="cls-1" d="M964.25,573.32c-.6,17.47-4.91,31.15-15.1,42C935,630.49,920,644.77,905.56,659.65c-3.83,4-6.29,4.11-10.28.07Q857,620.93,818.15,582.63c-4-4-2.62-6.08.43-9.08,15.34-15.16,29.75-31.39,46.13-45.3,19-16.14,41.27-18.54,64.1-8C952.3,531.18,962.83,550.72,964.25,573.32Z" transform="translate(-618.75 -501.88)"/><path class="cls-2" d="M724.41,520.33c-12.2-12.15-27-18.72-49.87-18.44-20.22,1.12-39.6,12.58-49.91,36.06-11.21,25.52-6.16,49.25,13.29,69q16.73,17,33.58,33.93a6.1,6.1,0,0,0,4.32,1.79h23.92l20.35-50.75c.9-2.25,3.86-3.73,7.31-3.66s6.32,1.73,7,4l22.63,70.55,16.9-43c.83-2.08,3.47-3.57,6.63-3.72s6.07,1,7.31,2.94l14.81,23.59h37.79a2.64,2.64,0,0,0,1.88-4.51c-20.7-20.64-42.9-42.84-58.27-58.21Q754.3,550.14,724.41,520.33Z" transform="translate(-618.75 -501.88)"/><path class="cls-2" d="M877.74,673.38c-5.08-5-10.92-10.84-17.19-17.09a12.1,12.1,0,0,0-8.5-3.51h-54.2c-3,0-5.64-1.08-6.8-2.94l-8.35-13.3-19.23,49c-.86,2.21-3.8,3.85-7.12,3.85h-.19c-3.4,0-6.32-1.78-7-4.05l-22.7-70.75-13.9,34.66c-.89,2.18-3.81,3.57-7.13,3.57H688.71a2.22,2.22,0,0,0-1.59,3.79c14.18,14.17,64,63.93,82.36,82.06s38.56,17.93,57.15-.18c17.32-16.89,34-34.41,51.47-51.09C884,681.71,883.06,678.65,877.74,673.38Z" transform="translate(-618.75 -501.88)"/></svg>