<svg id="Layer_1" data-name="Layer 1" xmlns="http://www.w3.org/2000/svg" viewBox="0 0 851.84 592.93"><defs><style>.cls-1{fill:#e8f2fa;}.cls-2{fill:#a8ccff;}.cls-16,.cls-2{opacity:0.3;}.cls-3{fill:#839ab7;opacity:0.64;}.cls-4,.cls-6{fill:#a9c2ff;}.cls-19,.cls-4,.cls-5{opacity:0.8;}.cls-7{fill:#ffae73;}.cls-8{fill:#667ee6;}.cls-9{fill:#10497e;}.cls-10{fill:#54bff9;}.cls-11{fill:#4f9ec1;}.cls-12{fill:#899bfa;}.cls-13{fill:#ffa05e;}.cls-14{fill:#0b3563;}.cls-15{fill:#0b4d87;}.cls-17{fill:#accefc;}.cls-18{fill:#99aef9;}.cls-19{fill:#426bb1;}.cls-20{fill:#25468f;}.cls-21{fill:#ff7b35;}.cls-22{fill:#fff;}.cls-23{fill:#1e3865;}</style></defs><title>Untitled-2</title><path class="cls-1" d="M905.42,1024.16c-54.1,0-736.46.37-736.46.28-.3-.71-124.66-140,23.33-256.92C264,710.9,150,624.28,240.58,536.08c69.1-67.27,140.81,7.33,215.68-24,13.23-5.53,26.5-14.42,39.79-28.07a147.66,147.66,0,0,1,24.46-20.19q2-1.34,4.07-2.61a163.13,163.13,0,0,1,16.32-8.8q5.65-2.65,11.52-4.9h0a189.17,189.17,0,0,1,19.1-6.19A216.9,216.9,0,0,1,600,435.8q6.36-.82,12.81-1.3c83.66-6.25,177.81,28.92,226.39,80.32,9.78,10.35,54.26,63.91,19.2,137.52C836.26,698.82,924.45,759.3,945,819,996.82,969.1,906.18,1022.4,905.42,1024.16Z" transform="translate(-119.16 -433.78)"/><path class="cls-2" d="M665.2,655s6.75-55.37,38.69-88.42,63.3-41.11,64.49-28.55-50,32.44-70.36,60.74A364,364,0,0,0,665.2,655Z" transform="translate(-119.16 -433.78)"/><path class="cls-2" d="M672.27,670.12s8.41-39.81,33.71-61.81,48.61-25.87,48.68-16.66-38.43,20.4-55,39.69A265.31,265.31,0,0,0,672.27,670.12Z" transform="translate(-119.16 -433.78)"/><path class="cls-2" d="M832.45,635.12c-6.69-24.76-48.45-17-48.45-17s-28.39,43.29-36.64,44.32,17-41.75,17-41.75c-16-1.56-56.72,18-56.72,18s2.55,50.52-5.7,49.49,0-44.86,0-44.86C686.54,647.91,672.09,666,672.09,666c-18.06,29.38,20.59,51,20.59,51s.5,17.53-10.33,37.63h0a59.47,59.47,0,0,0-4.94,10h4.22q.51-1.7,1.14-3.27v0l0,0,1.22-2.71h0c1.29-2.52,2.16-4.38,2.71-5.73h0c3.86-7.91,9.43-18.22,13.14-20.39a7.81,7.81,0,0,1-.9-1.93c.28.62.58,1.26.9,1.93,7.21,15.48,43.29,18.08,63.4,14s11.35-9.78.53-19-33.51-6.79-40.21-10.41,3.1-7.21,16.51-6.17,20.09,14.44,41.75,16.52S820,688.73,820,688.73c-14.95,4.63-41.76-3.64-42.79-8.79s38.67-4.62,44.86-6.16S839.13,659.87,832.45,635.12Z" transform="translate(-119.16 -433.78)"/><path class="cls-2" d="M414.7,766.4s-43.86-40.32-92.72-45-79.93,10.46-72.19,21.5,63.15-8.33,99.27.6A388.84,388.84,0,0,1,414.7,766.4Z" transform="translate(-119.16 -433.78)"/><path class="cls-2" d="M419.47,783.64S385,757.1,349.23,756.76,291.8,769.42,298.12,777s45.38-10.05,72.19-5.84A282.91,282.91,0,0,1,419.47,783.64Z" transform="translate(-119.16 -433.78)"/><path class="cls-2" d="M304.42,827.71c-6.14-14.31,16.65-26.36,16.65-26.36s29.82,9.92,34.13,7.3-23.84-13.46-23.84-13.46c7-6.76,33.79-12.79,33.79-12.79s17.82,25,21.36,21.42-16.91-21.35-16.91-21.35c9.11-3.62,22.78-.47,22.78-.47,19.66,7.18,9.42,32.06,9.42,32.06s6.37,8.54,19.1,14h0A36.39,36.39,0,0,1,427,831l-2,1.59c-.59-.41-1.18-.79-1.78-1.13h0c-.39-.2-.93-.49-1.61-.83h0c-1.56-.72-2.68-1.28-3.45-1.71h0c-4.82-2.32-11.35-5.13-13.93-4.76a5.19,5.19,0,0,0-.3-1.26q.14.6.3,1.26c2.39,10.08-13.81,24.91-24.93,30.53s-9.09-.39-7.41-8.85,13.39-15.86,15.22-20.1-4.19-2.27-10.18,3.27-4.13,14.45-13.66,23.59-32.72-4-32.72-4c8.86-3.43,18.51-17.46,17.06-20.3s-20.15,12.37-23.68,14S310.56,842,304.42,827.71Z" transform="translate(-119.16 -433.78)"/><path class="cls-3" d="M565.21,585.8s31.82-23.48,89.29,8.51c0,0,29.74,11.31,36.55,40.26a52.37,52.37,0,0,0,10.17,21,65.54,65.54,0,0,1,14.49,35.93,61.36,61.36,0,0,0,7.55,24.8c5,8.94,10.15,23.6,8.25,44.33,0,0,18.39,19.83,8,64,0,0,8.42,27.71-10.58,52.7,0,0,4.73,31.89-22.75,42.58,0,0-14.51,33.17-57.7,35.18a55.85,55.85,0,0,0-18.21,4c-8.22,3.31-23,6.53-44.21,1-34.48-9.07-31-30-31-30V590.88Z" transform="translate(-119.16 -433.78)"/><path class="cls-3" d="M546.66,585.8s-31.81-23.48-89.29,8.51c0,0-31.15,11.85-37,42.33a37.72,37.72,0,0,1-8.48,17.43A65.59,65.59,0,0,0,396,694.6a39,39,0,0,1-5.93,19.25c-4.53,7.29-9.85,19.51-10.08,36.94a39,39,0,0,1-4.17,17c-4.65,9.27-10.3,27.81-3.49,56.92a63.31,63.31,0,0,0,4.92,43.74,51.29,51.29,0,0,1,5.56,19c.76,8.61,4,20.81,15.28,28.56a54.36,54.36,0,0,1,12.75,12.39c7.2,9.69,22.58,24.53,50.07,26.61A82.08,82.08,0,0,1,483,959.71c8.45,3.08,22.75,5.67,42.81.4,34.48-9.07,31-30,31-30V590.88Z" transform="translate(-119.16 -433.78)"/><path class="cls-4" d="M527.12,811.08c-15.36-1.87-27.69-10.64-36.65-26.06l-.1-.18a15.75,15.75,0,0,1,5.35-21.15,13.65,13.65,0,0,0,3.51-3s-15.49,2.24-34.2-5.45c-11-4.51-18.4-13.91-18.4-13.91a32.51,32.51,0,0,0,10.16,18.61c2.66,2.42,8.87,5.53,13.34,6.51,4.63,1,6.59,5.61,8.3,10a88.48,88.48,0,0,0,5.72,11.94,66.46,66.46,0,0,0,14.2,17.44A41.12,41.12,0,0,0,479,823.15a38.16,38.16,0,0,0-4.69,13.28,57.46,57.46,0,0,1,12-14.69,37.23,37.23,0,0,1,26.39-9.19A63.45,63.45,0,0,0,527.12,811.08Z" transform="translate(-119.16 -433.78)"/><g class="cls-5"><path class="cls-6" d="M461.72,856.64c-.79,0-1.59,0-2.39-.07a35.11,35.11,0,0,1-26.65-14.51c-10.37-13.8-8-26.35-4.2-34.45l.13-.28c1.58-3.29,2.46,2.86,2.28,6.5-.41,7.79,5.73,19.81,13.37,26.33,8.84,7.54,23.16,7.37,34.07,7.73,4.09.14,7.54.41,3.89,2.85C477,854.24,469,856.64,461.72,856.64Z" transform="translate(-119.16 -433.78)"/></g><g class="cls-5"><path class="cls-6" d="M439.59,897.87A8.07,8.07,0,0,1,429,895.06a174.65,174.65,0,0,0-30.77-36.26h0c1.09.5,26.95,12.55,41.36,39.07Z" transform="translate(-119.16 -433.78)"/></g><path class="cls-4" d="M404,791.35c3.1-5.91,11.26-8.11,17.57-8.91,7.53-1,18.06.37,18.06.37-1-.12-16.56-14.5-34.21-3.3-1.11-10.62-14.17-15.25-14.17-15.25a39.17,39.17,0,0,1,4,7.09c1.65,3.79,3.38,9.46,2.22,14.91-1.08,5.11-4.59,9.37-10.44,12.67C387,798.93,399.35,801.35,404,791.35Z" transform="translate(-119.16 -433.78)"/><path class="cls-4" d="M495,732.54c6.4-1.9,13.66,2.41,18.64,6.38,5.93,4.73,12.32,13.2,12.32,13.2-.6-.79-1.15-22-21.48-26.82,6.84-8.2,1.06-20.8,1.06-20.8a40.49,40.49,0,0,1-2.31,7.8c-1.57,3.83-4.43,9-9.15,12-4.42,2.79-9.92,3.24-16.35,1.35C477.73,725.64,484.62,736.2,495,732.54Z" transform="translate(-119.16 -433.78)"/><g class="cls-5"><path class="cls-6" d="M589.66,796.77c16.63-2,30-11.52,39.69-28.22l.12-.2a17.05,17.05,0,0,0-5.81-22.91,14.8,14.8,0,0,1-3.79-3.27s16.77,2.42,37-5.91c11.89-4.88,19.94-15.06,19.94-15.06a35.26,35.26,0,0,1-11,20.15c-2.88,2.62-9.61,6-14.45,7.06-5,1.1-7.14,6.07-9,10.8a96.53,96.53,0,0,1-6.2,12.94A72,72,0,0,1,620.82,791a44.54,44.54,0,0,1,21,18.82,41.24,41.24,0,0,1,5.08,14.38,62.16,62.16,0,0,0-13-15.91,40.28,40.28,0,0,0-28.59-10A68.67,68.67,0,0,1,589.66,796.77Z" transform="translate(-119.16 -433.78)"/><path class="cls-6" d="M649.87,856.64c.79,0,1.59,0,2.39-.07a35.12,35.12,0,0,0,26.65-14.51c10.37-13.8,8-26.35,4.2-34.45l-.13-.28c-1.58-3.29-2.47,2.86-2.28,6.5.41,7.79-5.73,19.81-13.37,26.33-8.84,7.54-23.16,7.37-34.08,7.73-4.08.14-7.53.41-3.89,2.85C634.58,854.24,642.61,856.64,649.87,856.64Z" transform="translate(-119.16 -433.78)"/><path class="cls-6" d="M601.23,726.64c.58-.2,1.15-.42,1.72-.66a26.88,26.88,0,0,0,15.65-17.41c3.94-12.73-1.09-21.29-6-26.23l-.17-.17c-2-2-1,2.72.05,5.32,2.35,5.59,1,15.94-2.84,22.65-4.47,7.77-15,11.31-22.85,14.37-2.95,1.14-5.39,2.22-2.09,3.07A30.57,30.57,0,0,0,601.23,726.64Z" transform="translate(-119.16 -433.78)"/><path class="cls-6" d="M655.56,896.12a8.06,8.06,0,0,0,10.94.67,177.48,177.48,0,0,1,40.92-24.65h0c-1.2.13-29.61,3.4-51.86,24Z" transform="translate(-119.16 -433.78)"/><path class="cls-6" d="M663.45,681c-3.1-5.91-11.25-8.11-17.57-8.91-7.52-1-18.06.37-18.06.37,1-.12,16.56-14.5,34.21-3.3,1.11-10.61,14.17-15.25,14.17-15.25a39.62,39.62,0,0,0-4,7.09c-1.65,3.79-3.37,9.46-2.22,14.91,1.09,5.11,4.6,9.37,10.44,12.67C680.44,688.61,668.06,691,663.45,681Z" transform="translate(-119.16 -433.78)"/><path class="cls-6" d="M707.63,791.35c-3.11-5.91-11.26-8.11-17.58-8.91-7.52-1-18,.37-18,.37,1-.12,16.56-14.5,34.21-3.3,1.11-10.62,14.17-15.25,14.17-15.25a39.17,39.17,0,0,0-4,7.09c-1.65,3.79-3.38,9.46-2.22,14.91,1.08,5.11,4.59,9.37,10.44,12.67C724.62,798.93,712.23,801.35,707.63,791.35Z" transform="translate(-119.16 -433.78)"/></g><rect class="cls-6" x="382.99" y="760.38" width="346.75" height="7.76" transform="translate(-328.36 885.04) rotate(-89.87)"/><path class="cls-7" d="M763.78,807.12s-1-2.2-1.61-3.24-3.33-4.09-3.79-3.4-2.3,5.34-1.33,6.64-.06,3.56,4.8,4.93Z" transform="translate(-119.16 -433.78)"/><path class="cls-8" d="M817.79,793.25S792.91,814,783.21,812.1A192.47,192.47,0,0,1,764,806.6l-2.33,6s10.44,14.16,21.33,14.25a62,62,0,0,0,29.59-7.36Z" transform="translate(-119.16 -433.78)"/><path class="cls-9" d="M861.43,1012.32s-.72,11.65-3,11.82c-.3,0-11.43,0-11.43,0l-14.21-.08s.09-3.43,4.24-4.15,11.11-3.64,13.63-9.14C853.33,1005,861.43,1012.32,861.43,1012.32Z" transform="translate(-119.16 -433.78)"/><path class="cls-10" d="M862.25,1013.13a29.73,29.73,0,0,1-7.7,1.44,28.37,28.37,0,0,1-7.18-1s-.81-7.87-5.29-25.2c-2.34-9.08-5.7-20.76-10.46-35.28-13.19-40.11-17.2-63.58-17.56-65.8l0-.17,0,0,40.53-17.8s-5,55.29,1.39,76.51A88.77,88.77,0,0,1,858.3,956C862.34,979,862.25,1013.13,862.25,1013.13Z" transform="translate(-119.16 -433.78)"/><path class="cls-11" d="M842.08,988.35c-2.34-9.08-5.7-20.76-10.46-35.28-13.19-40.11-17.2-63.58-17.56-65.8,0-.06,0-.13,0-.19l40.53-17.8s-5,55.29,1.39,76.51C856.88,948.75,842.08,988.35,842.08,988.35Z" transform="translate(-119.16 -433.78)"/><path class="cls-9" d="M829.77,1012.32s-.72,11.65-3,11.82c-.3,0-11.44,0-11.44,0l-14.21-.08s.09-3.43,4.25-4.15,11.11-3.64,13.62-9.14C821.67,1005,829.77,1012.32,829.77,1012.32Z" transform="translate(-119.16 -433.78)"/><path class="cls-10" d="M806.79,870.58a577.64,577.64,0,0,0,5.68,79.82c6.19,44,4.09,62.65,4.09,62.65a42.23,42.23,0,0,0,6,1.52,27.12,27.12,0,0,0,8.87-1s8.87-44,6.33-66S849.89,872,849.89,872Z" transform="translate(-119.16 -433.78)"/><path class="cls-7" d="M835.81,784.06l-5.53,7.14-11.61.63c-.07-.94-.24-4.83-.39-8.36,0-.21,0-.42,0-.62-.13-3-.18-6.3-.18-6.3l9.21-6.38,3.45-2.65c0,.06.54,3.25.55,3.72C831.33,780.4,835.81,784.06,835.81,784.06Z" transform="translate(-119.16 -433.78)"/><path class="cls-12" d="M804.43,872.14c.16,18.9,1.43,63.14,2.35,64,9.85,9.51,53.17-2.61,55.47-13.08s-8.73-134.29-25.55-139.24c-3.49-1-22.15,5-22.15,5a118.17,118.17,0,0,0-4.85,17.41c-.71,3.62-3,29.41-4.39,46.64-.36,4.59-.65,8.58-.82,11.37C804.42,865.45,804.4,868.26,804.43,872.14Z" transform="translate(-119.16 -433.78)"/><path class="cls-13" d="M830.54,771.57c-1.34,4.41-9,9.81-12.26,11.9,0-.21,0-.42,0-.62-.13-3-.23-9.07-.23-9.07l9.26-3.61C829.57,769.58,831.1,769.75,830.54,771.57Z" transform="translate(-119.16 -433.78)"/><path class="cls-7" d="M815,774.86s17.19,5.36,20.37-5.4,7.54-17.32-3.31-21.2-14.2-.4-16.14,2.93S810.6,773.18,815,774.86Z" transform="translate(-119.16 -433.78)"/><path class="cls-14" d="M816.59,750.15s1.1,12.53,3.69,12,6-.63,5.62,3.15,3.19,10.18,5.57,10.16c8-.05,16.83-21.59,14.64-25.49C839.78,738.71,807.45,736.44,816.59,750.15Z" transform="translate(-119.16 -433.78)"/><path class="cls-8" d="M819.12,784.13c.22-.09,12.8-5.73,14.27-5.25s3.31,5,3.31,5l-22.15,5S816.29,785.33,819.12,784.13Z" transform="translate(-119.16 -433.78)"/><path class="cls-15" d="M737.62,847.48l64.68,68.69a3.4,3.4,0,0,0,4.79.05l4.4-4.14a3.4,3.4,0,0,0,.24-4.78l-64.81-68.82c-1.25-1.33-2.34-.28-3.72,1l-4.4,4.14C737.42,844.94,736.37,846.15,737.62,847.48Z" transform="translate(-119.16 -433.78)"/><path class="cls-10" d="M773.08,885.11l29.13,31a3.47,3.47,0,0,0,4.88.15l4.4-4.14a3.47,3.47,0,0,0,.14-4.88l-29.12-31Z" transform="translate(-119.16 -433.78)"/><path class="cls-14" d="M663.87,841.76a55.28,55.28,0,1,0,2.38-78.14l-.86.84A55.27,55.27,0,0,0,663.87,841.76Zm4.74-75.63a51.85,51.85,0,1,1-2.23,73.27A51.6,51.6,0,0,1,668.61,766.13Z" transform="translate(-119.16 -433.78)"/><g class="cls-16"><path class="cls-17" d="M666.38,839.4a51.83,51.83,0,1,0,28.86-86.59,52.29,52.29,0,0,0-8.45,2.21,51.86,51.86,0,0,0-20.41,84.38Z" transform="translate(-119.16 -433.78)"/></g><path class="cls-8" d="M804.43,872.14C845.54,844.3,842.19,806,842.19,806c-16,9-31.94,30.46-36.88,46.9-.36,4.59-.65,8.58-.82,11.37C804.42,865.45,804.4,868.26,804.43,872.14Z" transform="translate(-119.16 -433.78)"/><path class="cls-7" d="M768.21,858.05a10.76,10.76,0,0,1-5-3.07s-1.17.08.19,2.57c.12.21.37.75.56,1.13a.23.23,0,0,1-.2.34c-1.58.12-3.17-.5-6.22.13-.42.09-.54,1.1-.53,1.53a3.92,3.92,0,0,0,.82,2.65c.49.65,1.86,1.35,4.91,2.57,1.17.47,4.49.12,7.6-.95l2.49-1.15-.77-4.63-.63.13C770.47,859.51,769.24,858.3,768.21,858.05Z" transform="translate(-119.16 -433.78)"/><path class="cls-12" d="M830.13,788.87s34.91,6.65-10.28,57.21c-7.22,8.09-46.27,18.62-46.27,18.62s-4-3.37-2-6.1c0,0,26.88-19.52,32.8-22.63,2.66-1.39,10.32-31.16,14.66-38.33A19.59,19.59,0,0,1,830.13,788.87Z" transform="translate(-119.16 -433.78)"/><path class="cls-7" d="M762.83,807.73a17.64,17.64,0,0,1-1.36-3.33,18.42,18.42,0,0,0-2.26-5.1c-.23-.24-1,.07-1.11,1.08a6,6,0,0,0,.56,2.21c.63,1.56.52,3.68.74,4.39C759.94,808.74,762.83,807.73,762.83,807.73Z" transform="translate(-119.16 -433.78)"/><rect class="cls-4" x="175.38" y="121.65" width="219.09" height="146.7" rx="17.4"/><path class="cls-18" d="M352.67,571.36s6.36-4.76,17.86,1.73c0,0,6,2.29,7.31,8.16a10.53,10.53,0,0,0,2,4.26,13.43,13.43,0,0,1,2.89,7.29,12.52,12.52,0,0,0,1.52,5,15.56,15.56,0,0,1,1.65,9s3.68,4,1.61,13a12.9,12.9,0,0,1-2.12,10.69s.95,6.47-4.55,8.64a13.17,13.17,0,0,1-11.54,7.13,11.13,11.13,0,0,0-3.65.82,13.69,13.69,0,0,1-8.84.19c-6.9-1.84-6.21-6.08-6.21-6.08V572.39Z" transform="translate(-119.16 -433.78)"/><path class="cls-18" d="M349,571.36s-6.37-4.76-17.86,1.73c0,0-6.23,2.4-7.4,8.58a7.69,7.69,0,0,1-1.7,3.54,13.36,13.36,0,0,0-3.18,8.22,8.06,8.06,0,0,1-1.19,3.91,14.52,14.52,0,0,0-2,7.49,7.92,7.92,0,0,1-.83,3.44c-.93,1.88-2.06,5.64-.7,11.55a13,13,0,0,0,1,8.87,10.59,10.59,0,0,1,1.11,3.86,7.64,7.64,0,0,0,3.05,5.79,11,11,0,0,1,2.55,2.51,13.34,13.34,0,0,0,10,5.4,16.71,16.71,0,0,1,4.42,1,14,14,0,0,0,8.56.08c6.9-1.84,6.2-6.08,6.2-6.08V572.39Z" transform="translate(-119.16 -433.78)"/><path class="cls-19" d="M344,614.16c-3.33-.41-6-2.34-7.94-5.73l0,0a3.48,3.48,0,0,1,1.16-4.64,3.16,3.16,0,0,0,.76-.67,15.33,15.33,0,0,1-7.41-1.2,11.16,11.16,0,0,1-4-3,7.19,7.19,0,0,0,2.2,4.09,7.75,7.75,0,0,0,2.89,1.43c1,.22,1.43,1.23,1.8,2.19a20.2,20.2,0,0,0,1.24,2.62,14.53,14.53,0,0,0,3.08,3.84,9,9,0,0,0-4.2,3.81,8.46,8.46,0,0,0-1,2.92,12.59,12.59,0,0,1,2.6-3.23,8,8,0,0,1,5.72-2A13.26,13.26,0,0,0,344,614.16Z" transform="translate(-119.16 -433.78)"/><path class="cls-19" d="M332,626.3h-.48a7,7,0,0,1-5.33-2.94,6.53,6.53,0,0,1-.84-7l0-.06c.32-.67.5.58.46,1.32a7.9,7.9,0,0,0,2.67,5.34c1.77,1.53,4.64,1.5,6.82,1.57.82,0,1.51.08.78.58A7.8,7.8,0,0,1,332,626.3Z" transform="translate(-119.16 -433.78)"/><path class="cls-19" d="M341.7,599.93l-.35-.13a5.44,5.44,0,0,1-3.13-3.53,5.08,5.08,0,0,1,1.2-5.33l0,0c.4-.4.2.55,0,1.08a6.13,6.13,0,0,0,.56,4.59c.9,1.58,3,2.3,4.57,2.92.59.23,1.08.45.42.62A6,6,0,0,1,341.7,599.93Z" transform="translate(-119.16 -433.78)"/><path class="cls-19" d="M327.54,634.67a1.6,1.6,0,0,1-2.12-.57,35.55,35.55,0,0,0-6.15-7.36h0a19.79,19.79,0,0,1,8.27,7.93Z" transform="translate(-119.16 -433.78)"/><path class="cls-19" d="M345.18,631.29c-1.11-.76-1.35-2.43-1.35-3.71a17.6,17.6,0,0,1,.53-3.57c-.05.19-3.34,2.92-1.52,6.7-2.17-.05-3.43,2.43-3.43,2.43a7.31,7.31,0,0,1,1.53-.61,5.25,5.25,0,0,1,3.06-.06,3.89,3.89,0,0,1,2.28,2.39S347.08,632.46,345.18,631.29Z" transform="translate(-119.16 -433.78)"/><path class="cls-19" d="M329.25,590.68c.62-1.2,2.25-1.65,3.51-1.81a17.72,17.72,0,0,1,3.62.08c-.2,0-3.32-2.94-6.85-.67-.22-2.16-2.83-3.1-2.83-3.1a8.44,8.44,0,0,1,.79,1.44,5.27,5.27,0,0,1,.45,3,4,4,0,0,1-2.09,2.57S328.33,592.71,329.25,590.68Z" transform="translate(-119.16 -433.78)"/><path class="cls-19" d="M320.41,613.06c.62-1.2,2.25-1.65,3.52-1.81a17.65,17.65,0,0,1,3.61.08c-.2,0-3.31-2.94-6.84-.67-.23-2.16-2.84-3.1-2.84-3.1a8.06,8.06,0,0,1,.8,1.44,5.28,5.28,0,0,1,.44,3A3.93,3.93,0,0,1,317,614.6S319.49,615.09,320.41,613.06Z" transform="translate(-119.16 -433.78)"/><path class="cls-19" d="M340.12,581.49c1.39-1,1.68-3,1.69-4.64a22.18,22.18,0,0,0-.66-4.46c.06.24,4.16,3.65,1.9,8.38,2.7-.07,4.28,3,4.28,3a10.68,10.68,0,0,0-1.91-.76,6.63,6.63,0,0,0-3.82-.08,4.93,4.93,0,0,0-2.86,3S337.75,583,340.12,581.49Z" transform="translate(-119.16 -433.78)"/><path class="cls-19" d="M331.41,638.76c1.3-.89,1.57-2.85,1.58-4.33a20.92,20.92,0,0,0-.61-4.17c.05.23,3.88,3.4,1.77,7.82,2.52-.06,4,2.83,4,2.83a8.66,8.66,0,0,0-1.78-.71,6.21,6.21,0,0,0-3.57-.08,4.6,4.6,0,0,0-2.66,2.79S329.2,640.12,331.41,638.76Z" transform="translate(-119.16 -433.78)"/><path class="cls-19" d="M357.56,614.16c3.33-.41,6-2.34,7.94-5.73l0,0a3.48,3.48,0,0,0-1.16-4.64,3.16,3.16,0,0,1-.76-.67,15.33,15.33,0,0,0,7.41-1.2,11.16,11.16,0,0,0,4-3,7.19,7.19,0,0,1-2.2,4.09,7.75,7.75,0,0,1-2.89,1.43c-1,.22-1.43,1.23-1.8,2.19a20.2,20.2,0,0,1-1.24,2.62,14.53,14.53,0,0,1-3.08,3.84,9,9,0,0,1,4.2,3.81,8.46,8.46,0,0,1,1,2.92,12.59,12.59,0,0,0-2.6-3.23,8,8,0,0,0-5.72-2A13.26,13.26,0,0,1,357.56,614.16Z" transform="translate(-119.16 -433.78)"/><path class="cls-19" d="M369.6,626.3h.48a7,7,0,0,0,5.33-2.94,6.51,6.51,0,0,0,.84-7l0-.06c-.32-.67-.5.58-.46,1.32A7.9,7.9,0,0,1,373.1,623c-1.77,1.53-4.64,1.5-6.82,1.57-.82,0-1.51.08-.78.58A7.8,7.8,0,0,0,369.6,626.3Z" transform="translate(-119.16 -433.78)"/><path class="cls-19" d="M359.87,599.93l.35-.13a5.44,5.44,0,0,0,3.13-3.53,5.08,5.08,0,0,0-1.2-5.33l0,0c-.4-.4-.2.55,0,1.08a6.13,6.13,0,0,1-.56,4.59c-.9,1.58-3,2.3-4.57,2.92-.59.23-1.08.45-.42.62A6,6,0,0,0,359.87,599.93Z" transform="translate(-119.16 -433.78)"/><path class="cls-19" d="M373.1,632.08a1.6,1.6,0,0,0,2.19.14,35,35,0,0,1,8.18-5h0a19.8,19.8,0,0,0-10.37,4.86Z" transform="translate(-119.16 -433.78)"/><path class="cls-19" d="M356.39,631.29c1.11-.76,1.35-2.43,1.35-3.71a17.92,17.92,0,0,0-.52-3.57c0,.19,3.33,2.92,1.51,6.7,2.17-.05,3.43,2.43,3.43,2.43a7.31,7.31,0,0,0-1.53-.61,5.25,5.25,0,0,0-3.06-.06,3.89,3.89,0,0,0-2.28,2.39S354.49,632.46,356.39,631.29Z" transform="translate(-119.16 -433.78)"/><path class="cls-19" d="M372.32,590.68c-.62-1.2-2.25-1.65-3.51-1.81a17.72,17.72,0,0,0-3.62.08c.2,0,3.32-2.94,6.85-.67.22-2.16,2.83-3.1,2.83-3.1a8.44,8.44,0,0,0-.79,1.44,5.27,5.27,0,0,0-.45,3,4,4,0,0,0,2.09,2.57S373.24,592.71,372.32,590.68Z" transform="translate(-119.16 -433.78)"/><path class="cls-19" d="M381.16,613.06c-.62-1.2-2.25-1.65-3.52-1.81a17.65,17.65,0,0,0-3.61.08c.2,0,3.31-2.94,6.84-.67.23-2.16,2.84-3.1,2.84-3.1a8.06,8.06,0,0,0-.8,1.44,5.28,5.28,0,0,0-.44,3,4,4,0,0,0,2.09,2.57S382.08,615.09,381.16,613.06Z" transform="translate(-119.16 -433.78)"/><path class="cls-19" d="M361.45,581.49c-1.39-1-1.68-3-1.69-4.64a22.18,22.18,0,0,1,.66-4.46c-.06.24-4.16,3.65-1.9,8.38-2.7-.07-4.27,3-4.27,3a10,10,0,0,1,1.9-.76A6.63,6.63,0,0,1,360,583a4.93,4.93,0,0,1,2.86,3S363.82,583,361.45,581.49Z" transform="translate(-119.16 -433.78)"/><path class="cls-19" d="M370.16,638.76c-1.3-.89-1.57-2.85-1.58-4.33a20.61,20.61,0,0,1,.62-4.17c-.06.23-3.89,3.4-1.78,7.82-2.52-.06-4,2.83-4,2.83a8.66,8.66,0,0,1,1.78-.71,6.21,6.21,0,0,1,3.57-.08,4.6,4.6,0,0,1,2.66,2.79S372.37,640.12,370.16,638.76Z" transform="translate(-119.16 -433.78)"/><rect class="cls-19" x="315.73" y="606.79" width="70.34" height="1.55" transform="translate(-376.67 523.22) rotate(-89.86)"/><rect class="cls-20" x="275.6" y="132.69" width="58.11" height="5.92"/><rect class="cls-18" x="275.6" y="146.98" width="46.51" height="2.96"/><rect class="cls-20" x="275.6" y="154.95" width="30.37" height="2.96"/><rect class="cls-18" x="310.51" y="154.95" width="30.36" height="2.96"/><rect class="cls-20" x="326.85" y="146.98" width="28.05" height="2.96"/><rect class="cls-10" x="337.18" y="132.69" width="26.97" height="5.92"/><rect class="cls-20" x="193.02" y="228.58" width="46.41" height="4.73"/><rect class="cls-18" x="193.02" y="239.99" width="37.15" height="2.36"/><rect class="cls-18" x="193.02" y="246.35" width="24.25" height="2.36"/><rect class="cls-20" x="220.9" y="246.35" width="24.25" height="2.36"/><rect class="cls-18" x="233.95" y="239.99" width="22.4" height="2.36"/><rect class="cls-21" x="242.21" y="228.58" width="21.54" height="4.73"/><path class="cls-22" d="M453.17,608.32a3.5,3.5,0,1,1-4.95,0A3.49,3.49,0,0,1,453.17,608.32Z" transform="translate(-119.16 -433.78)"/><path class="cls-22" d="M439.14,623.08a3.9,3.9,0,1,1-5.51,0A3.89,3.89,0,0,1,439.14,623.08Z" transform="translate(-119.16 -433.78)"/><path class="cls-22" d="M421.82,615.32a3.33,3.33,0,1,1-4.7,0A3.32,3.32,0,0,1,421.82,615.32Z" transform="translate(-119.16 -433.78)"/><path class="cls-22" d="M406.08,624.34a3.33,3.33,0,1,1-4.71,0A3.34,3.34,0,0,1,406.08,624.34Z" transform="translate(-119.16 -433.78)"/><polygon class="cls-22" points="284.43 192.67 300.31 183.57 317.18 191.71 331.33 176.82 331.76 177.23 317.31 192.43 300.33 184.24 284.72 193.19 284.43 192.67"/><path class="cls-22" d="M461.52,631.55a2.9,2.9,0,1,1,4.05-.7A2.9,2.9,0,0,1,461.52,631.55Z" transform="translate(-119.16 -433.78)"/><path class="cls-22" d="M471,617.57a3.23,3.23,0,1,1,4.5-.78A3.24,3.24,0,0,1,471,617.57Z" transform="translate(-119.16 -433.78)"/><path class="cls-22" d="M486.19,621.54a2.76,2.76,0,1,1,3.84-.67A2.77,2.77,0,0,1,486.19,621.54Z" transform="translate(-119.16 -433.78)"/><path class="cls-22" d="M497.83,612a2.76,2.76,0,1,1,3.84-.67A2.76,2.76,0,0,1,497.83,612Z" transform="translate(-119.16 -433.78)"/><polygon class="cls-22" points="380.41 176.16 368.67 185.78 353.77 181.43 344.23 195.53 343.83 195.26 353.56 180.86 368.56 185.23 380.1 175.78 380.41 176.16"/><polygon class="cls-22" points="311.72 245.48 308.34 227.71 306.86 235.3 286.9 235.3 286.9 234.1 305.87 234.1 308.35 221.35 311.89 239.94 313.48 233.67 316.93 233.67 319.28 222.72 322.29 239.41 323.87 233.02 330.99 233.02 333.61 224.43 335.9 239.47 337.74 233.02 343.63 233.02 345.36 223.59 349.07 238.43 350.42 233.02 358.04 233.02 358.43 237.52 362.63 221.13 365.38 233.06 377.77 233.06 377.77 234.26 364.43 234.26 362.57 226.21 357.86 244.63 356.94 234.22 351.36 234.22 349.08 243.38 345.54 229.26 344.63 234.22 338.64 234.22 335.54 245.09 333.21 229.83 331.88 234.22 324.81 234.22 322.1 245.15 319.18 228.92 317.9 234.87 314.42 234.87 311.72 245.48"/><path class="cls-22" d="M502.51,691H400.08V647.58H502.51Zm-101.77-.67H501.85v-42H400.74Z" transform="translate(-119.16 -433.78)"/><rect class="cls-23" y="590.2" width="851.84" height="2.73" rx="1.06"/></svg>